<svg xmlns="http://www.w3.org/2000/svg" viewBox="0 0 108.45 108"><title>cut-lemon-logo-white</title><path d="M107.84,42A47,47,0,0,0,93.28,15.08c-1.39-1.26-7.14-6.39-8.72-7.63C76.1.83,64.15-1.67,51.14,1.14A57.7,57.7,0,0,0,38.91,5.3c-19.18,7-34.29,24.16-38,43.48a49.25,49.25,0,0,0-.86,9.91A39.53,39.53,0,0,0,3.43,77.51c.66,1.42,3.24,6,3.8,6.91,6.4,10.71,17.18,19.36,32.74,22.43a58.67,58.67,0,0,0,31.5-2.32,57.05,57.05,0,0,0,10.26-5.41,58.9,58.9,0,0,0,8.35-5.62,55.11,55.11,0,0,0,17.86-31.41,58.11,58.11,0,0,0,.5-9.48A54.13,54.13,0,0,0,107.84,42ZM92,38.69c-1.74,26.82-27,51.62-53.76,53C13.91,92.94-.07,73.77,4.73,50.62,9.2,29.12,28.94,9.36,50.62,4.83,74.16-.09,93.59,14.09,92,38.69Z" style="fill:#fff;fill-rule:evenodd"/><path d="M32,18.71c0-.93-2.06-4.35,10.48-8.59C56.14,5.5,55.79,8.45,55,10.56c-1,2.7-8.92,26.53-9.91,30s-1.19,3.06-3.26-.35C39.52,36.34,32,19.82,32,18.71Z" style="fill:#fff;fill-rule:evenodd"/><path d="M57.83,7.76c.69-1,3.06-3.32,13.25,2C85.84,17.36,80,21.3,77.83,23c-2.74,2.14-25,15.91-29,18.51-3.24,2.14-2.8,2.11-1.64-2.55C48.52,33.63,57,8.88,57.83,7.76Z" style="fill:#fff;fill-rule:evenodd"/><path d="M80.57,23.36c1.22-.42,4.78-3.88,6.89,9.25,2.26,14-1.1,14.24-5,14.2-3.31,0-29.26.16-33.24-.46-3.24-.49-3-.19,1.13-3.58C55.15,38.83,79.14,23.86,80.57,23.36Z" style="fill:#fff;fill-rule:evenodd"/><path d="M82.31,48.67c2.19.17,3.63,6-4.27,15.63C67.23,77.41,61,79.76,59.23,76.61,57.76,74,48.48,54.09,47.15,50.43c-1.07-3-1.2-2.51,3.37-2.24C55.91,48.5,81.25,48.59,82.31,48.67Z" style="fill:#fff;fill-rule:evenodd"/><path d="M57.31,76.76c1,1.78,3,5.83-10.54,9.53-14.51,4-15.25.82-14-3,1.09-3.23,7.66-27.52,9.63-31.72,1.61-3.44,1.21-3.13,3.34.44C48.3,56.27,56.84,75.9,57.31,76.76Z" style="fill:#fff;fill-rule:evenodd"/><path d="M30,84.45c-.84,2.13-4.73,4.43-12.95-2.8C8.45,74.07,9.58,69.13,12.6,67.13c2.62-1.73,22-14.75,26.06-16.84,3.36-1.74,2.94-1.78,1.16,3C37.74,58.77,30.43,83.41,30,84.45Z" style="fill:#fff;fill-rule:evenodd"/><path d="M13.88,64.46c-1.7,1.21-7.27,4.81-7-6.6.29-12.17,2.66-12.8,5.43-12.57,2.43.2,22.21-.59,25.71.39,3,.83,2.44,1-1.77,4C31.42,53.29,14.71,63.87,13.88,64.46Z" style="fill:#fff;fill-rule:evenodd"/><path d="M11.29,43.13c-1.6-.29-3.59-2.06,5.56-13.63,9.51-12,13-11.42,14.1-9.14,1,2,7.48,17.82,9.1,20.9,1.14,2.16,1.71,3.26-3.13,2.68S12,43.27,11.29,43.13Z" style="fill:#fff;fill-rule:evenodd"/></svg>