<svg xmlns="http://www.w3.org/2000/svg" viewBox="0 0 64 64"><path data-name="layer2" d="M33.8 27.6a13 13 0 0 0 3.2.4h5v7l7.6-7A13 13 0 0 0 49 2H37a13 13 0 0 0-12 18" fill="none" stroke="#ffe468" stroke-linecap="round" stroke-linejoin="round" stroke-width="2"></path><circle data-name="layer2" cx="43" cy="15" r="1" fill="none" stroke="#ffe468" stroke-linecap="round" stroke-linejoin="round" stroke-width="2"></circle><circle data-name="layer2" cx="35" cy="15" r="1" fill="none" stroke="#ffe468" stroke-linecap="round" stroke-linejoin="round" stroke-width="2"></circle><circle data-name="layer2" cx="51" cy="15" r="1" fill="none" stroke="#ffe468" stroke-linecap="round" stroke-linejoin="round" stroke-width="2"></circle><path data-name="layer1" d="M37.4 54.3c-8.2-1.4-7.4-3.5-7.4-4.9v-2.5a13.9 13.9 0 0 0 4-10.1v-6.7C34 22.8 28.7 20 24 20s-10 2.8-10 10.1v6.7a13.8 13.8 0 0 0 4.1 10.1v2.5c0 1.4.7 3.5-7.4 4.9S2 60 2 62h44c0-2-1.3-6.4-8.6-7.7z" fill="none" stroke="#ffe468" stroke-linecap="round" stroke-linejoin="round" stroke-width="2"></path></svg>