<svg xmlns="http://www.w3.org/2000/svg" xmlns:xlink="http://www.w3.org/1999/xlink" preserveAspectRatio="xMidYMid" width="2960" height="2339" viewBox="0 0 2960 2339">
  <defs>
    <style>

      .cls-2 {
        fill: #e6e6e6;
      }
    </style>
  </defs>
  <path d="M0.000,2339.000 C0.000,2339.000 0.000,0.000 0.000,0.000 C0.000,0.000 2960.000,0.000 2960.000,0.000 C2960.000,0.000 2960.000,2339.000 2960.000,2339.000 C2960.000,2339.000 0.000,2339.000 0.000,2339.000 ZM2711.450,248.589 C2711.450,248.589 248.550,248.589 248.550,248.589 C248.550,248.589 248.550,2090.411 248.550,2090.411 C248.550,2090.411 2711.450,2090.411 2711.450,2090.411 C2711.450,2090.411 2711.450,248.589 2711.450,248.589 ZM1084.580,1423.739 C1084.580,1423.739 1683.359,779.667 1683.359,779.667 C1683.359,779.667 1920.611,1062.155 1920.611,1062.155 C1920.611,1062.155 2022.290,1005.657 2022.290,1005.657 C2022.290,1005.657 2609.771,1875.720 2609.771,1875.720 C2609.771,1875.720 395.420,1875.720 395.420,1875.720 C395.420,1875.720 903.817,1344.643 903.817,1344.643 C903.817,1344.643 1084.580,1423.739 1084.580,1423.739 ZM971.603,937.860 C846.812,937.860 745.649,836.681 745.649,711.870 C745.649,587.059 846.812,485.879 971.603,485.879 C1096.394,485.879 1197.557,587.059 1197.557,711.870 C1197.557,836.681 1096.394,937.860 971.603,937.860 Z" id="path-1" class="cls-2" fill-rule="evenodd"/>
</svg>