<svg xmlns="http://www.w3.org/2000/svg" viewBox="0 0 503.92 319.84"><title>melt-logo-white</title><path d="M73,89.25c0,62.74-73,94-73,157.22a73.58,73.58,0,0,0,147.16,0c0-61.61-73-94.48-73-157.22C74.16,88.64,73,88.61,73,89.25ZM162.77,0A73.45,73.45,0,0,0,89.19,73.34c0,61.58,73,94.43,73,157.15,0,.61,1.16.64,1.16,0,0-62.72,73-94,73-157.15A73.45,73.45,0,0,0,162.77,0Zm88.6,89.25c0,62.74-73,94-73,157.22a73.58,73.58,0,0,0,147.16,0c0-61.61-73-94.48-73-157.22C252.54,88.64,251.37,88.61,251.37,89.25ZM341.15,1.48a73.45,73.45,0,0,0-73.58,73.34c0,61.58,73,94.44,73,157.15,0,.61,1.17.64,1.17,0,0-62.71,73-93.95,73-157.15A73.46,73.46,0,0,0,341.15,1.48Zm89.77,87.77c0-.61-1.17-.64-1.17,0,0,62.74-73,94-73,157.22a73.59,73.59,0,0,0,147.17,0C503.92,184.86,430.92,152,430.92,89.25Z" style="fill:#fff;fill-rule:evenodd"/></svg>